<svg width="269" height="304" viewBox="0 0 269 304" fill="none" xmlns="http://www.w3.org/2000/svg">
<path d="M126.031 145.407C125.93 162.779 138.5 199.406 152.941 182.667C167.382 165.929 115.464 165.075 121.069 199.406C127.692 239.969 233.736 196.712 267.333 255.31" stroke="#170426" stroke-width="3" stroke-linecap="round"/>
<g clip-path="url(#clip0_1_147)">
<path d="M61.9961 96.7975C61.6937 97.0234 61.4671 97.3609 61.4267 97.7443C60.6519 99.0072 59.8286 100.239 58.947 101.425C58.0614 100.896 57.1198 100.481 56.1348 100.19C58.009 95.2844 60.068 90.4627 62.1824 85.6365C64.4243 80.5158 66.5636 75.3305 68.079 69.9542C69.5881 70.1005 71.0945 70.2524 72.6036 70.3987C69.5509 79.2443 66.7668 88.6575 62.0004 96.7961L61.9961 96.7975Z" fill="#FFEFF0"/>
<path d="M140.315 77.7032C140.207 77.7208 140.101 77.7569 139.998 77.8014C139.969 77.7732 139.946 77.7478 139.918 77.7196C139.853 77.2914 139.553 76.9809 139.172 76.8355C138.125 75.4805 137.316 73.9355 136.479 72.3907C134.998 69.6476 133.305 67.0617 131.39 64.6034C127.967 60.2024 124.097 56.1331 119.995 52.356C121.304 50.3338 122.612 48.3116 123.916 46.2909C126.06 48.335 128.505 49.6042 130.6 51.6982C130.542 51.8078 130.181 52.7265 130.199 52.8484C130.243 53.1036 130.908 53.2191 130.952 53.4742C131.078 54.2369 132.526 54.0629 132.821 53.5078C135.298 56.017 136.587 58.9626 138.984 61.5417C138.98 61.5573 138.975 61.573 138.974 61.5829C138.83 62.1485 139.337 62.4692 139.786 62.4113C142.401 65.2432 144.97 68.1193 147.492 71.0397C144.956 73.1041 142.564 75.3239 140.318 77.6975L140.315 77.7032Z" fill="#FFA3A9"/>
<path d="M180.831 33.5731C177.864 30.3629 174.798 27.2625 171.686 24.1964C171.4 23.9142 171.115 23.632 170.881 23.3041C170.763 23.1402 170.662 22.9662 170.529 22.8123C170.346 22.5948 170.108 22.4244 169.88 22.2554C168.841 21.4708 167.89 20.5807 166.936 19.6964L166.444 19.0861C165.913 18.2902 164.398 17.3593 163.77 16.8335C162.615 15.8608 161.504 14.8354 160.359 13.85C158.066 11.8847 155.74 9.95934 153.373 8.08104C153.103 6.9786 151.459 6.42299 151.007 7.71391C151.167 7.25186 150.797 7.97475 150.619 8.2056C150.177 8.7728 149.733 9.33575 149.285 9.90014C147.942 11.5976 146.586 13.2851 145.238 14.9797C143.951 16.5917 142.668 18.198 141.387 19.8128C141.181 20.0722 140.91 20.3632 140.635 20.6698C140.563 20.7227 140.498 20.7826 140.433 20.8568C134.374 27.6999 127.851 34.0987 120.885 40.0133C120.418 39.7974 119.926 39.9406 119.585 40.2603C119.105 40.7029 119.125 41.4732 119.566 41.949C120.073 42.4925 120.324 42.9664 120.833 43.4332C120.833 43.4332 120.841 43.4304 120.844 43.4247C121.232 43.7858 121.616 44.1483 122.004 44.5094C121.994 44.5222 121.987 44.5294 121.977 44.5422C120.591 46.6854 119.208 48.8229 117.822 50.9661C117.165 51.0663 116.625 51.7376 116.678 52.4113C112.998 56.6318 106.916 56.2328 101.796 55.9761C99.0328 55.8339 96.531 56.2948 94.2527 57.9307C92.0508 59.5123 90.2137 61.6382 88.4314 63.6601C87.206 65.0476 86.3096 66.1196 85.1712 67.5818C84.852 67.5906 84.3352 67.7993 83.9981 67.909C80.7219 68.9644 77.6125 70.3992 74.6895 72.1877C74.7369 72.0484 74.7844 71.9091 74.8319 71.7698C75.0358 71.7005 75.2281 71.5689 75.3971 71.341C76.0872 70.4148 75.9176 69.5105 75.1504 68.5768C74.7876 68.1361 74.074 67.9045 73.533 68.0977C71.8265 67.9284 70.4298 67.597 68.7191 67.4291C68.8814 66.7628 69.0338 66.095 69.1691 65.4188C69.2326 65.1035 69.1928 64.8327 69.078 64.6063C69.183 64.092 69.0265 63.5197 68.4486 63.1852C62.3161 59.652 55.3829 57.3053 48.7433 54.9442C42.6482 52.7772 36.4781 50.6263 30.1961 49.0394C29.8081 48.413 28.9055 48.1271 28.3135 48.5887C27.0937 48.4153 26.5685 49.9251 27.2228 50.7218C21.9002 62.9443 17.2772 75.4553 12.1608 87.769C12.0908 87.9396 12.0605 88.1016 12.0571 88.2591C10.8587 88.3722 10.1847 90.1553 11.5299 90.67C18.5288 93.3356 25.5291 96.0055 32.5279 98.6711C35.8695 99.9438 39.2308 101.191 42.5613 102.5C45.6571 103.719 48.6559 105.099 51.1445 107.348C51.5453 108.236 53.2527 108.31 53.6672 107.06C54.1626 105.575 54.6809 104.1 55.2162 102.634C55.9594 102.842 56.6677 103.127 57.338 103.497C58.1731 103.877 58.6882 104.403 59.4463 104.975C59.4705 104.99 59.6 105.065 59.6155 105.041C60.6345 105.32 61.5294 103.964 60.9779 103.024C61.6159 102.168 62.2183 101.29 62.7965 100.397C64.0414 102.263 65.3866 104.062 66.7135 105.877C65.0255 108.274 63.2898 111.285 65.1266 113.443C66.6005 115.174 69.0678 115.379 71.3625 114.922C71.9426 115.389 72.2889 115.906 72.382 116.32C73.1474 118.714 76.1655 119.494 78.7245 119.341C80.1628 119.251 81.7856 118.922 82.8755 117.917C83.5319 117.311 83.9534 116.556 84.2596 115.742C84.0686 118.138 84.7797 120.469 87.2633 121.323C89.393 122.054 91.5779 120.981 92.5803 119.063C93.1433 118.739 93.6121 118.068 93.9954 117.341C95.0455 120.671 99.5511 120.766 102.661 119.431C103.115 119.457 103.587 119.282 103.895 118.808C103.908 118.79 103.916 118.773 103.93 118.758C104.031 118.691 104.131 118.624 104.228 118.548C104.623 118.258 104.768 117.862 104.752 117.479L105.174 117.076C108.64 117.571 112.054 118.317 115.413 119.319C115.891 119.64 116.872 119.695 117.507 119.527C120.516 118.733 121.734 116.429 121.958 113.476C123.913 113.623 125.88 112.955 127.298 111.549C128.536 110.324 129.34 108.378 128.759 106.722C128.848 106.635 128.918 106.536 128.971 106.428C131.115 105.288 132.75 103.32 133.455 100.986C133.824 99.7712 133.875 98.2612 133.355 97.0778C137.289 95.2114 138.828 90.14 136.455 86.278C137.286 85.0006 137.98 83.6374 138.559 82.2181C139.019 82.427 139.575 82.3898 140.004 81.8937C140.163 81.7069 140.329 81.5272 140.49 81.3447C141.308 81.4366 142.025 80.743 141.886 79.8044C144.159 77.3697 146.581 75.0973 149.172 72.9998C149.526 73.415 149.883 73.8246 150.237 74.2398C150.277 74.2878 150.32 74.3301 150.365 74.3668C150.745 74.7307 150.786 75.4939 151.569 75.5123C152.353 75.5306 153.02 74.5365 153.408 73.9781C157.24 68.474 161.153 63.0276 165.144 57.6447C167.14 54.9532 169.159 52.2729 171.197 49.6096C173.028 47.2156 174.77 44.2219 176.939 42.1396C178.645 39.8215 180.527 37.7181 182.431 35.5507C183.418 34.4242 181.944 32.944 180.832 33.5631L180.831 33.5731ZM141.885 23.373C141.869 23.4114 141.864 23.437 141.858 23.4625C141.857 23.4583 141.855 23.454 141.854 23.4498C141.864 23.4228 141.881 23.4028 141.889 23.3716L141.885 23.373ZM61.9961 96.7975C61.6937 97.0234 61.4671 97.3609 61.4267 97.7443C60.6519 99.0072 59.8286 100.239 58.947 101.425C58.0614 100.896 57.1198 100.481 56.1349 100.19C58.009 95.2844 60.068 90.4627 62.1824 85.6365C64.4243 80.5158 66.5636 75.3305 68.079 69.9542C69.5881 70.1004 71.0945 70.2524 72.6036 70.3987C69.551 79.2443 66.7668 88.6575 62.0004 96.7961L61.9961 96.7975ZM70.4506 112.445C69.6933 112.518 68.0521 112.611 67.4202 112.02C66.436 111.103 67.6747 109.043 68.7827 107.477C69.2371 106.778 69.6021 106.318 69.8754 105.964C69.9106 105.914 69.9415 105.866 69.9739 105.822C71.2092 103.919 72.4772 102.043 73.7752 100.186C74.3847 99.3154 74.9552 98.302 75.6945 97.5345C76.136 97.0765 76.6111 96.5077 77.2292 96.9186C77.5781 97.1508 77.788 97.6434 77.6199 98.0417C77.3861 98.6091 77.5564 99.1247 77.8975 99.4733C77.1241 100.992 76.5302 102.634 75.8817 104.157C74.7793 106.744 73.677 109.331 72.5789 111.917C71.9036 112.189 71.198 112.372 70.4576 112.438L70.4506 112.445ZM81.7276 115.123C81.0362 116.575 79.5048 116.768 78.029 116.762C77.0897 116.759 75.1758 116.551 74.7652 115.188C74.6424 114.785 74.5416 114.53 74.4204 114.159C74.4638 114.049 74.5128 113.943 74.5562 113.833C74.7104 113.757 74.8255 113.524 74.917 113.388C75.2999 112.841 75.8618 111.314 75.9554 110.78C77.4493 107.169 78.3279 104.663 79.9869 101.133C80.6783 99.6664 82.3088 96.3739 84.4405 97.7257C85.9442 98.6793 85.1858 101.372 84.8543 102.741C84.4203 104.561 83.8882 106.357 83.4457 108.18C82.9172 110.364 82.6883 113.081 81.7162 115.117L81.7276 115.123ZM91.7627 116.459C91.1008 117.091 90.8679 117.327 90.2048 117.997C89.2239 119.463 87.0906 119.097 86.8228 117.122C86.5964 115.436 87.1484 113.406 87.4173 111.741C87.9579 108.421 88.3862 104.044 91.3784 101.943C92.7636 100.97 94.6467 100.738 95.9322 102.012C97.3076 103.37 96.23 105.29 95.6238 106.77C94.9321 108.446 94.2419 110.125 93.5503 111.801C93.3669 112.251 92.2195 115.669 91.7599 116.465L91.7627 116.459ZM103.461 114.766C103.331 114.901 103.233 115.057 103.163 115.228C102.811 115.769 102.459 116.31 102.112 116.85C100.842 117.603 99.3371 118 97.869 117.584C95.3692 116.879 96.6554 114.191 97.4315 112.639C98.1963 111.109 99.0152 109.599 99.807 108.079C100.53 106.692 101.255 104.948 102.673 104.126C103.958 103.377 106.477 103.327 107.915 103.711C107.989 103.733 108.057 103.753 108.125 103.772C108.356 103.879 108.586 103.985 108.814 104.098C110.197 105.045 108.622 106.826 107.785 108.115C106.344 110.333 104.906 112.546 103.465 114.765L103.461 114.766ZM117.641 116.937C117.377 117.178 116.99 117.224 116.664 117.074C116.339 116.924 115.965 116.786 115.805 116.736C112.551 115.732 109.949 115.189 106.592 114.665C107.504 113.261 108.415 111.857 109.327 110.453C110.157 109.171 111.566 107.613 112.002 105.967C112.208 106.111 112.42 106.247 112.622 106.396C114.974 108.119 116.848 110.624 119.37 112.104C119.665 113.88 118.956 115.742 117.637 116.938L117.641 116.937ZM131.779 94.8929C131.61 94.7562 131.423 94.6253 131.031 94.6161L115.729 86.0697C113.768 83.1292 111.581 87.2648 114.396 87.7543L127.599 95.085C128.265 95.5268 129.311 96.4987 130.22 97.4032C130.335 97.5203 130.37 97.6081 130.601 97.7856C131.179 98.665 130.997 100.447 130.537 101.338C129.842 102.682 128.747 103.646 127.417 104.335C126.871 103.994 126.439 102.989 126.172 102.592C125.702 101.894 125.174 101.272 124.532 100.722C123.01 99.4198 121.146 98.4511 119.444 97.4035C115.536 95.0059 111.574 92.7022 107.559 90.4784C106.094 89.6678 104.956 91.9969 106.414 92.8004C110.826 95.2449 115.182 97.789 119.468 100.447C121.531 101.722 123.166 102.797 124.52 104.83C124.716 105.129 124.917 105.401 125.13 105.651C125.43 106.004 125.637 106.418 125.832 106.839C125.879 106.937 125.942 107.039 126.022 107.135C126.904 108.181 125.84 109.514 124.932 110.149C124.366 110.545 123.747 110.774 123.106 110.855C122.793 110.895 122.487 110.776 122.223 110.6C122.142 110.542 122.045 110.494 121.937 110.455C120.052 109.745 118.751 108.357 117.331 106.992C116.021 105.73 114.626 104.593 113.109 103.587C112.327 103.071 111.525 102.594 110.7 102.159C110.084 101.657 109.313 101.312 108.464 101.098C106.68 100.339 104.826 99.7507 102.916 99.3428C101.475 99.0358 100.906 100.973 101.911 101.674C101.301 101.943 100.767 102.266 100.351 102.635C99.8968 103.04 99.4949 103.504 99.133 104.001C99.2483 102.275 98.6236 100.672 97.0253 99.5514C95.1079 98.2028 92.6476 98.2278 90.6233 99.3415C89.3727 100.027 88.3991 101.011 87.6421 102.159C87.8628 101.009 87.9726 99.8387 87.7932 98.696C87.1417 94.5861 82.6104 93.9685 79.9567 96.4664C79.4108 95.0122 78.0099 93.9146 76.2662 94.1939C74.3254 94.5069 73.2266 96.4627 72.2003 97.92C70.8699 99.8075 69.5751 101.716 68.3101 103.643C66.9347 101.769 65.5565 99.9008 64.3068 97.9369C68.363 90.9303 71.0137 83.0503 73.6188 75.3565C74.0436 75.2123 74.3089 75.198 74.6231 75.0487C77.2694 73.7711 79.764 72.256 82.4782 71.1924C81.0844 73.1582 79.7661 75.179 78.5303 77.2476C77.4309 79.0899 76.2374 81.3526 77.8402 83.2962C79.2631 85.0166 81.7034 84.9746 83.5933 84.1766C88.8891 81.9379 93.7707 77.9349 97.9201 73.9104C100.648 76.0407 104.068 76.8319 107.494 76.2467C115.128 81.1181 123.267 85.1169 131.793 88.1784C132.796 88.4821 133.284 88.942 134.261 87.9376C134.499 87.6908 134.639 88.1455 134.765 88.5294C135.742 91.0596 134.376 93.9306 131.786 94.8858L131.779 94.8929ZM134.579 84.3942C134.053 85.2456 133.803 85.7096 133.144 85.9332C124.231 82.7518 115.739 78.5506 107.804 73.3929C107.118 72.9483 106.501 73.2809 106.209 73.8445C103.441 74.1209 100.745 73.1171 98.7095 71.183C98.1774 70.6766 97.3595 70.8358 96.8812 71.311C94.5867 73.5969 92.1336 75.6949 89.5049 77.5826C88.1905 78.5264 86.8375 79.4122 85.4487 80.2486C84.2084 80.9919 82.6415 82.1968 81.1316 82.1598C78.4579 82.1008 80.328 79.2767 81.0226 78.1263C81.8549 76.7396 82.7285 75.3768 83.6391 74.0394C85.345 71.5411 87.1805 69.1315 89.1343 66.8191C91.0684 64.5323 93.078 62.0494 95.4788 60.2439C98.261 58.1525 101.171 58.572 104.448 58.7056C109.417 58.9093 114.883 58.1907 118.389 54.394C122.611 58.2868 126.596 62.4875 130.035 67.0913C131.825 69.4879 133.339 72.0066 134.757 74.6337C135.477 75.972 136.233 77.2789 137.141 78.4587C136.537 80.5451 135.705 82.5617 134.58 84.3984L134.579 84.3942ZM140.318 77.6975C140.21 77.7151 140.104 77.7512 140.001 77.7958C139.972 77.7675 139.949 77.7421 139.921 77.7139C139.856 77.2857 139.556 76.9752 139.175 76.8298C138.127 75.4748 137.319 73.9298 136.481 72.385C135 69.6419 133.307 67.0561 131.392 64.5977C127.97 60.1967 124.1 56.1274 119.998 52.3503C121.307 50.3281 122.615 48.3059 123.919 46.2852C125.125 47.4349 126.295 48.6345 127.489 49.7929C128.054 50.3403 128.781 50.7378 129.283 51.3494C129.88 52.0754 129.818 52.2148 130.274 53.041C130.35 53.181 130.894 54.1571 131.047 54.2002C131.206 54.2504 131.371 54.1658 131.539 54.1563C131.855 54.139 132.116 54.3915 132.329 54.6273C134.941 57.4507 137.552 60.2698 140.164 63.0932C141.445 64.478 142.73 65.8615 144.012 67.2506C144.578 67.859 145.142 68.4731 145.709 69.0815C146.166 69.5756 147.293 70.3966 147.506 71.0254C147.571 71.2166 144.324 73.7689 143.984 74.0787C142.721 75.2422 141.496 76.4494 140.318 77.6975Z" fill="#170426"/>
<path d="M14.6959 87.9223L29.6821 51.2658C29.6821 51.2658 48.4831 57.1507 50.7412 58.0093C52.9993 58.868 64.5455 63.5105 65.4004 64.1585C66.2554 64.8064 65.0878 71.2209 61.4116 79.6954C57.7353 88.1699 53.9486 99.4872 52.763 101.899C51.5774 104.311 47.5997 102.448 43.299 100.43C38.9983 98.4124 19.7248 90.5081 17.9952 89.7543C16.2656 89.0005 14.6945 87.9181 14.6945 87.9181L14.6959 87.9223Z" fill="#FFA3A9"/>
<path d="M124.019 41.849C124.019 41.849 145.365 22.9876 151.255 11.9892C152.833 11.5434 157.151 15.9153 158.518 16.7875C159.885 17.6596 177.489 35.0915 178.049 35.5694C179.174 36.5237 152.053 68.8561 151.496 69.9788C150.939 71.1014 124.014 41.8462 124.014 41.8462L124.019 41.849Z" fill="#FFEFF0"/>
</g>
<defs>
<clipPath id="clip0_1_147">
<rect width="180.607" height="96" fill="white" transform="translate(0 58.0642) rotate(-18.7533)"/>
</clipPath>
</defs>
</svg>
