<svg width="106" height="95" viewBox="0 0 106 95" fill="none" xmlns="http://www.w3.org/2000/svg">
<path d="M2.14922 66.8219C6.64187 69.5179 11.6552 71.1872 16.9352 70.581C21.5065 70.0588 25.6706 67.7821 29.2448 64.9922C36.743 59.1351 41.9212 50.9836 48.6489 44.3533C51.105 41.9327 54.0245 39.3585 57.4932 38.8283C61.62 38.1968 66.4215 41.5651 67.0001 45.9713C67.3741 48.7773 66.1759 51.9959 63.7723 53.5984C60.491 55.7797 55.9092 54.8388 52.9357 52.5906C49.2621 49.82 49.2039 44.4294 50.1386 40.1148C52.0425 31.4264 59.9923 25.8651 68.2349 23.7624C77.2254 21.4615 86.5264 23.6879 94.5311 28.0507C96.4066 29.0737 98.2177 30.2022 99.9858 31.4153C101.594 32.5169 103.283 30.0186 101.688 28.9213C93.8723 23.5887 84.6691 19.5819 75.049 19.8256C65.4289 20.0693 54.7518 24.5292 49.7235 33.0719C46.782 38.0759 45.7804 44.5784 47.525 50.1763C49.6383 56.9771 59.5404 59.9331 65.3312 56.1712C71.5949 52.1032 71.3828 42.8057 65.7365 38.3837C62.3715 35.7468 58.1568 35.0587 54.1926 36.6668C50.2284 38.2749 46.9894 41.6185 44.138 44.7403C40.6152 48.6247 37.379 52.7487 33.8014 56.5861C30.4204 60.2213 26.6794 63.7903 22.1472 65.9413C17.5936 68.1134 12.6565 68.2131 7.96232 66.3977C6.52451 65.8359 5.17678 65.1349 3.84669 64.3406C2.18725 63.3489 0.477088 65.8258 2.14488 66.8346L2.14922 66.8219Z" fill="#170426"/>
<path fill-rule="evenodd" clip-rule="evenodd" d="M100.368 21.987C101.155 21.7285 102.003 22.1569 102.261 22.9439L104.919 31.0332C105.168 31.7909 104.78 32.6108 104.037 32.8996L96.5438 35.8104C95.7716 36.1104 94.9024 35.7276 94.6025 34.9554C94.3025 34.1832 94.6853 33.314 95.4575 33.014L101.625 30.6182L99.4112 23.8803C99.1526 23.0932 99.581 22.2456 100.368 21.987Z" fill="black"/>
<path d="M58.3432 16.5322C51.9851 19.0514 46.5335 23.6178 42.8732 29.3909C42.1126 30.5986 43.9841 31.7785 44.7419 30.5803C48.2196 25.101 53.3592 20.8816 59.3782 18.4953C59.9392 18.276 60.0878 17.4881 59.8361 16.9995C59.5387 16.4249 58.8918 16.3195 58.3403 16.5416L58.3432 16.5322Z" fill="#170426"/>
<path d="M45.4249 18.1647C44.436 19.5802 43.4377 20.9929 42.4488 22.4085C42.1182 22.8835 42.2864 23.6449 42.7946 23.9342C43.3375 24.2444 43.9688 24.0981 44.3203 23.5884C45.3092 22.1728 46.3075 20.7602 47.2964 19.3446C47.627 18.8696 47.4588 18.1082 46.9506 17.8189C46.4076 17.5087 45.7764 17.655 45.4249 18.1647Z" fill="#170426"/>
</svg>
